<svg width="570" height="570" viewBox="0 0 570 570" fill="none" xmlns="http://www.w3.org/2000/svg">
<rect width="570" height="570" fill="#7A7A7A"/>
<rect x="21" y="21" width="528" height="528" rx="29" stroke="#F4ECEC" stroke-width="2"/>
<path d="M232 548L220.28 507.222L210 471" stroke="#F5F5F5" stroke-linecap="round" stroke-linejoin="round" stroke-dasharray="2 2"/>
<path d="M280 549.924L133 21.9237" stroke="#F5F5F5" stroke-dasharray="2 2"/>
<path d="M549.5 306.5L21.0001 470" stroke="white" stroke-dasharray="2 2"/>
<path d="M182.5 375L21 423.5" stroke="white" stroke-dasharray="4 4"/>
<path d="M193.5 548.5C217.621 543.365 221.438 533.917 221.5 512.5L204 450.5M204 450.5C196.724 431.165 186.968 423.733 159 426.5M204 450.5L172.5 336M159 426.5L52.5 461C33.3879 467.836 26.1019 473.83 21 489.5M159 426.5C198.969 404.853 215.182 383.077 217.5 324" stroke="white" stroke-width="2"/>
<path d="M60.5 458L498 323C523.834 320.026 543.79 334.797 548.5 359.5" stroke="white" stroke-width="2"/>
<path d="M250 440C243.096 418.556 256.348 396.685 274 392C223.856 388.772 201.003 374.169 172 335" stroke="white" stroke-width="2"/>
<line x1="260.855" y1="350.521" x2="548.855" y2="263.521" stroke="white" stroke-dasharray="2 2"/>
<path d="M21 385C30.2083 408.268 38.5415 414.004 58.5 412.5L498.5 279C539.26 261.263 544.606 258.898 549 222.5" stroke="white" stroke-width="2"/>
<path d="M149.5 385.5C169.896 373.339 175.547 363.629 173 340L92.5 48C81.5094 27.5789 76.4229 20.843 58 21" stroke="white" stroke-width="2"/>
<path d="M219 328.5C228.176 348.888 237.425 352.931 259 351" stroke="white" stroke-width="2"/>
<path d="M150 385.5C198.979 385.692 223.443 396.856 250 442" stroke="white" stroke-width="2"/>
<path d="M205.5 453C210.563 405.993 222.914 382.227 261 352" stroke="white" stroke-width="2"/>
<line x1="172.481" y1="20.8646" x2="264.481" y2="347.865" stroke="white" stroke-dasharray="2 2"/>
<path d="M172.5 21C149.164 25.8051 141.652 32.5831 143 55.5L268.5 508.5C282.201 539.914 293.992 548.373 321.5 549" stroke="white" stroke-width="2"/>
<line x1="253.853" y1="312.522" x2="548.853" y2="221.522" stroke="white" stroke-dasharray="2 2"/>
<line x1="182" y1="56.5" x2="547" y2="56.5" stroke="white" stroke-dasharray="2 2"/>
<line x1="513.5" y1="20" x2="513.5" y2="233" stroke="white" stroke-dasharray="2 2"/>
<path d="M441 57H202C191.271 61.001 188.354 65.1862 188.5 76L249.5 295C255.145 304.624 259.818 307.492 271.5 307L501.5 236" stroke="white" stroke-width="2"/>
<path d="M439.5 57C451.579 58.6296 459.763 60.9575 469 67L497 94.5C510.032 108.4 513.314 117.841 513.5 137V216.5C511.274 228.381 508.127 232.331 500.5 236.5" stroke="white" stroke-width="2"/>
<line x1="238.852" y1="255.522" x2="510.852" y2="171.522" stroke="white" stroke-dasharray="2 2"/>
<line x1="169.852" y1="146.931" x2="284.509" y2="111.522" stroke="white" stroke-dasharray="2 2"/>
<path d="M340.059 162L366.531 277.478" stroke="white" stroke-dasharray="2 2"/>
<path d="M419.059 137L457.915 290.513" stroke="white" stroke-dasharray="2 2"/>
<line x1="339.852" y1="161.522" x2="507.852" y2="109.522" stroke="white" stroke-dasharray="2 2"/>
<line x1="285.34" y1="110.633" x2="340.34" y2="161.633" stroke="white" stroke-dasharray="2 2"/>
<path d="M284.653 109.64L302 57" stroke="white" stroke-dasharray="2 2"/>
<path d="M205.5 136L205.205 135.044L205.198 135.047L205.5 136ZM330 152.5L329.314 153.228L329.339 153.251L329.366 153.273L330 152.5ZM406.5 140.5L406.494 139.5L406.465 139.5L406.437 139.502L406.5 140.5ZM342 171L341.001 171.041L341.005 171.135L341.026 171.226L342 171ZM386.522 272.5C387.074 272.488 387.512 272.031 387.5 271.478C387.488 270.926 387.031 270.488 386.478 270.5L386.522 272.5ZM448.5 252.5L449.472 252.264L449.47 252.255L449.467 252.246L448.5 252.5ZM205.795 136.955L273.795 115.955L273.205 114.045L205.205 135.045L205.795 136.955ZM274.02 115.854C279.544 112.494 285.065 108.61 287.92 101.891L286.08 101.109C283.491 107.201 278.47 110.806 272.98 114.146L274.02 115.854ZM287.949 101.816L296.449 76.3162L294.551 75.6838L286.051 101.184L287.949 101.816ZM296.499 75.9633C296.326 71.2456 295.398 67.0287 292.395 63.5855C289.406 60.1577 284.495 57.6509 276.705 56.0212L276.295 57.9788C283.889 59.5675 288.308 61.9418 290.888 64.9C293.454 67.8428 294.335 71.5167 294.501 76.0367L296.499 75.9633ZM205.198 135.047L184.698 141.547L185.302 143.453L205.802 136.953L205.198 135.047ZM184.933 141.502C179.635 141.856 176.262 141.918 173.565 141.119C170.948 140.343 168.867 138.721 166.291 135.388L164.709 136.612C167.418 140.115 169.819 142.095 172.997 143.036C176.094 143.954 179.829 143.848 185.067 143.498L184.933 141.502ZM184.543 141.611C180.517 143.68 177.571 145.661 175.412 148.461C173.251 151.265 171.952 154.793 171.017 159.817L172.983 160.183C173.891 155.305 175.109 152.13 176.996 149.683C178.885 147.232 181.518 145.415 185.457 143.389L184.543 141.611ZM296.342 76.5402C299.851 71.0727 302.864 67.3515 306.457 64.5395C310.044 61.7316 314.273 59.7806 320.29 57.957L319.71 56.043C313.564 57.9055 309.079 59.9474 305.224 62.9646C301.375 65.9775 298.219 69.9133 294.658 75.4598L296.342 76.5402ZM286 101.511C286.046 105.673 286.667 108.838 288.101 111.808C289.523 114.755 291.714 117.441 294.772 120.686L296.228 119.314C293.2 116.101 291.186 113.597 289.902 110.939C288.63 108.303 288.044 105.447 288 101.489L286 101.511ZM294.814 120.728L329.314 153.228L330.686 151.772L296.186 119.272L294.814 120.728ZM373.578 151.816C378.341 148.442 381.606 145.479 383.913 141.975C386.223 138.465 387.521 134.489 388.484 129.178L386.516 128.822C385.577 133.998 384.346 137.68 382.242 140.876C380.134 144.078 377.1 146.871 372.422 150.184L373.578 151.816ZM388.5 129V41H386.5V129H388.5ZM388.486 40.8307C387.235 33.5494 384.946 28.7004 380.734 25.4931C376.575 22.3255 370.697 20.8885 362.608 20.0059L362.392 21.9941C370.439 22.8722 375.831 24.2732 379.523 27.0843C383.162 29.8558 385.305 34.1264 386.514 41.1693L388.486 40.8307ZM386.567 129.359C388.278 133.814 390.055 137.147 393.124 139.197C396.196 141.248 400.371 141.891 406.563 141.498L406.437 139.502C400.37 139.887 396.748 139.211 394.235 137.533C391.721 135.854 390.127 133.049 388.433 128.641L386.567 129.359ZM406.506 141.5C410.682 141.474 413.446 141.86 415.523 143.041C417.563 144.201 419.099 146.223 420.573 149.874L422.427 149.126C420.878 145.288 419.116 142.783 416.512 141.303C413.945 139.843 410.72 139.474 406.494 139.5L406.506 141.5ZM422.49 149.639C423.049 145.67 423.834 142.894 425.248 140.54C426.66 138.188 428.752 136.171 432.078 133.816L430.922 132.184C427.488 134.615 425.147 136.822 423.533 139.51C421.92 142.197 421.085 145.278 420.51 149.361L422.49 149.639ZM373.296 151.955L492.796 114.955L492.204 113.045L372.704 150.045L373.296 151.955ZM492.348 114.988C499.047 116.019 503.468 118.403 506.513 121.848C509.579 125.316 511.345 129.964 512.52 135.701L514.48 135.299C513.275 129.417 511.414 124.372 508.012 120.523C504.589 116.651 499.7 114.096 492.652 113.012L492.348 114.988ZM493.288 114.615C496.473 110.534 498.115 106.902 498.085 102.878C498.056 98.8976 496.388 94.7037 493.365 89.4978L491.635 90.5022C494.615 95.6328 496.06 99.4511 496.085 102.893C496.111 106.291 494.751 109.49 491.712 113.385L493.288 114.615ZM273.636 115.991C278.006 115.391 281.295 115.389 284.486 116.122C287.686 116.858 290.861 118.351 294.981 120.855L296.019 119.145C291.824 116.595 288.437 114.979 284.934 114.173C281.422 113.366 277.869 113.391 273.364 114.009L273.636 115.991ZM329.57 153.403C336.579 156.737 346.487 158.189 355.022 158L354.978 156C346.631 156.185 337.062 154.752 330.43 151.597L329.57 153.403ZM355.316 157.949L373.316 151.949L372.684 150.051L354.684 156.051L355.316 157.949ZM329.366 153.273C331.639 155.138 334.548 159.283 336.939 163.249C338.122 165.209 339.153 167.085 339.89 168.547C340.258 169.279 340.548 169.898 340.745 170.366C340.844 170.601 340.914 170.787 340.959 170.924C341.012 171.087 341.003 171.105 341.001 171.041L342.999 170.959C342.99 170.726 342.919 170.482 342.86 170.302C342.792 170.095 342.699 169.854 342.589 169.592C342.368 169.066 342.056 168.402 341.676 167.647C340.914 166.135 339.857 164.215 338.652 162.216C336.269 158.265 333.206 153.837 330.634 151.727L329.366 153.273ZM341.026 171.226L361.526 259.726L363.474 259.274L342.974 170.774L341.026 171.226ZM361.501 259.539C361.726 265.384 361.018 269.39 358.946 272.72C356.859 276.073 353.304 278.879 347.511 282.128L348.489 283.872C354.358 280.581 358.282 277.572 360.644 273.777C363.021 269.958 363.732 265.484 363.499 259.461L361.501 259.539ZM342.964 171.266C344.044 167.357 345.251 164.783 347.074 162.821C348.901 160.856 351.433 159.411 355.352 157.936L354.648 156.064C350.616 157.581 347.746 159.161 345.609 161.46C343.47 163.762 342.153 166.692 341.036 170.734L342.964 171.266ZM361.586 259.906C363.767 264.818 365.969 268.165 369.781 270.154C373.531 272.112 378.683 272.669 386.522 272.5L386.478 270.5C378.656 270.67 373.964 270.082 370.706 268.381C367.511 266.714 365.544 263.891 363.414 259.094L361.586 259.906ZM420.533 149.754L447.533 252.754L449.467 252.246L422.467 149.246L420.533 149.754ZM447.528 252.736L451.528 269.236L453.472 268.764L449.472 252.264L447.528 252.736ZM451.509 269.132C452.344 275.386 451.99 279.895 449.87 283.985C447.732 288.11 443.726 291.947 436.929 296.679L438.071 298.321C444.934 293.543 449.276 289.478 451.646 284.905C454.035 280.297 454.352 275.312 453.491 268.868L451.509 269.132ZM451.584 269.402C454.42 275.862 457.633 280.084 462.672 282.372C467.646 284.631 474.232 284.921 483.598 283.995L483.402 282.005C474.081 282.926 467.957 282.575 463.499 280.551C459.105 278.556 456.161 274.854 453.416 268.598L451.584 269.402ZM388.486 41.1665C389.676 34.1166 391.803 29.8172 395.729 27.0265C399.725 24.1854 405.75 22.7803 415.084 21.9965L414.916 20.0035C405.56 20.7892 399.045 22.2146 394.57 25.3964C390.023 28.6286 387.745 33.5444 386.514 40.8335L388.486 41.1665Z" fill="white"/>
<line x1="387.5" y1="22" x2="387.5" y2="146" stroke="white" stroke-dasharray="2 2"/>
<path d="M243.5 273.5C243.789 261.796 246.897 256.467 258.5 249.5M258.5 249.5L494.5 176.5M258.5 249.5C244.948 250.566 239.45 248.965 235 240.5M494.5 176.5C505.411 175.653 510.153 182.05 513.5 191.5M494.5 176.5C505.501 171.824 509.902 163.927 513.5 156" stroke="white" stroke-width="2"/>
</svg>
